<svg xmlns="http://www.w3.org/2000/svg" fill="none" viewBox="0 0 1482 1482" height="1482" width="1482">
<g clip-path="url(#clip0_16_765)">
<path fill-opacity="0.9" fill="url(#paint0_linear_16_765)" d="M654.614 921.926C656.395 892.589 660.417 859.337 666.547 823.11C672.463 788.117 680.095 751.825 689.254 715.237C698.389 678.663 708.561 643.618 719.52 611.11C730.841 577.467 742.486 548.017 754.157 523.579C765.804 499.153 776.761 481.171 786.703 470.189C796.308 459.586 804.593 455.882 811.302 459.224C818.012 462.566 822.834 472.734 825.611 489.509C828.471 506.854 829.03 530.523 827.249 559.86C825.469 589.196 821.446 622.449 815.317 658.675C809.401 693.668 801.769 729.96 792.61 766.548C783.475 803.122 773.303 838.167 762.344 870.675C751.022 904.318 739.378 933.768 727.707 958.207C716.037 982.645 705.103 1000.61 695.161 1011.6C685.556 1022.2 677.271 1025.9 670.562 1022.56C663.852 1019.22 659.03 1009.05 656.253 992.276C653.393 974.931 652.834 951.262 654.614 921.926ZM652.002 927.443C644.494 1051.12 678.21 1067.86 727.316 964.847C776.422 861.838 822.343 678.055 829.852 554.379C837.36 430.703 803.644 413.966 754.538 516.975C705.432 619.984 659.511 803.767 652.002 927.443Z"></path>
<path fill-opacity="0.9" fill="url(#paint1_linear_16_765)" d="M647.261 924.21C649.938 893.061 654.989 858.012 662.329 820.038C669.387 783.337 678.265 745.462 688.689 707.435C699.113 669.407 710.555 633.197 722.725 599.743C735.305 565.127 748.083 535.023 760.752 510.285C773.385 485.537 785.161 467.637 795.654 457.077C805.821 446.859 814.414 443.902 821.184 448.258C827.978 452.6 832.613 464.047 834.976 482.295C837.426 501.172 837.297 526.533 834.643 557.669C831.966 588.819 826.915 623.867 819.575 661.841C812.517 698.542 803.639 736.417 793.215 774.445C782.791 812.472 771.348 848.682 759.178 882.136C746.599 916.752 733.821 946.856 721.152 971.594C708.482 996.332 696.743 1014.24 686.249 1024.8C676.083 1035.02 667.49 1037.98 660.72 1033.62C653.926 1029.28 649.291 1017.83 646.927 999.584C644.478 980.707 644.607 955.346 647.261 924.21ZM644.4 929.778C633.136 1061.05 667.22 1082.91 720.543 978.606C773.867 874.303 826.212 683.327 837.477 552.055C848.741 420.784 814.657 398.924 761.334 503.227C708.01 607.53 655.665 798.506 644.4 929.778Z"></path>
<path fill-opacity="0.9" fill="url(#paint2_linear_16_765)" d="M639.607 925.751C643.239 892.785 649.439 855.933 658.05 816.207C666.359 777.828 676.555 738.391 688.321 699.002C700.11 659.601 712.882 622.222 726.294 587.927C740.185 552.432 754.172 521.752 767.835 496.811C781.52 471.857 794.058 454.102 805.157 444.056C815.869 434.355 824.76 432.183 831.585 437.648C838.433 443.099 842.849 455.876 844.73 475.636C846.699 496.086 845.849 523.189 842.216 556.155C838.583 589.12 832.384 625.973 823.773 665.698C815.464 704.077 805.268 743.515 793.502 782.903C781.713 822.305 768.94 859.684 755.528 893.978C741.638 929.474 727.65 960.153 713.988 985.094C700.303 1010.05 687.764 1027.8 676.666 1037.85C665.953 1047.55 657.062 1049.72 650.237 1044.26C643.389 1038.81 638.973 1026.03 637.093 1006.27C635.124 985.82 635.974 958.716 639.607 925.751ZM636.521 931.356C621.207 1070.3 655.514 1097.67 713.163 992.478C770.826 887.305 829.993 689.398 845.308 550.453C860.622 411.509 826.315 384.135 768.666 489.331C711.003 594.505 651.836 792.411 636.521 931.356Z"></path>
<path fill-opacity="0.9" fill="url(#paint3_linear_16_765)" d="M631.743 926.496C636.414 891.698 643.834 853.061 653.789 811.604C663.422 771.566 674.999 730.621 688.194 689.915C701.412 649.195 715.58 610.763 730.334 575.694C745.598 539.374 760.817 508.262 775.562 483.22C790.293 458.155 803.697 440.672 815.335 431.239C826.597 422.116 835.77 420.859 842.617 427.484C849.463 434.108 853.641 448.287 855.018 469.633C856.451 491.718 854.797 520.58 850.113 555.356C845.428 590.131 838.021 628.791 828.066 670.248C818.433 710.286 806.856 751.231 793.661 791.937C780.443 832.657 766.275 871.089 751.521 906.158C736.257 942.477 721.039 973.59 706.293 998.632C691.548 1023.67 678.158 1041.18 666.52 1050.61C655.258 1059.74 646.085 1060.99 639.238 1054.37C632.392 1047.74 628.214 1033.57 626.838 1012.22C625.404 990.134 627.058 961.272 631.743 926.496ZM628.409 932.152C608.7 1078.81 643.086 1112.09 705.245 1006.48C767.368 900.863 833.737 696.362 853.446 549.7C873.155 403.037 838.769 369.757 776.61 475.368C714.487 580.989 648.118 785.49 628.409 932.152Z"></path>
<path fill-opacity="0.9" fill="url(#paint4_linear_16_765)" d="M623.649 926.361C629.455 889.735 638.179 849.297 649.577 806.174C660.598 764.533 673.643 722.125 688.342 680.18C703.065 638.221 718.684 598.829 734.832 563.078C751.514 526.063 768.016 494.61 783.851 469.586C799.673 444.54 813.913 427.437 826.121 418.724C837.916 410.31 847.375 410.03 854.214 417.923C861.053 425.816 864.899 441.45 865.703 464.422C866.531 488.182 863.991 518.821 858.222 555.456C852.416 592.082 843.692 632.52 832.293 675.643C821.272 717.284 808.228 759.692 793.528 801.638C778.806 843.596 763.187 882.989 747.039 918.739C730.356 955.755 713.854 987.207 698.019 1012.23C682.184 1037.25 667.957 1054.38 655.75 1063.09C643.955 1071.51 634.496 1071.79 627.657 1063.89C620.818 1056 616.972 1040.37 616.167 1017.4C615.339 993.635 617.879 962.996 623.649 926.361ZM620.077 932.031C595.652 1086.44 629.964 1126.06 696.685 1020.49C763.419 914.956 837.323 704.224 861.748 549.813C886.172 395.401 851.86 355.788 785.14 461.349C718.406 566.888 644.501 777.62 620.077 932.031Z"></path>
<path fill-opacity="0.9" fill="url(#paint5_linear_16_765)" d="M615.359 925.285C622.36 886.829 632.45 844.645 645.392 799.922C657.887 756.721 672.489 712.951 688.77 669.846C705.051 626.741 722.232 586.477 739.796 550.187C757.976 512.615 775.792 480.928 792.748 456.028C809.703 431.129 824.787 414.526 837.558 406.628C849.903 399.008 859.609 399.849 866.384 409.074C873.159 418.299 876.668 435.485 876.83 460.122C876.997 485.621 873.524 518.063 866.524 556.519C859.523 594.975 849.433 637.158 836.491 681.882C823.997 725.082 809.394 768.853 793.113 811.958C776.832 855.063 759.651 895.327 742.087 931.617C723.907 969.189 706.091 1000.88 689.135 1025.78C672.18 1050.67 657.096 1067.28 644.325 1075.18C631.98 1082.8 622.274 1081.95 615.499 1072.73C608.724 1063.5 605.215 1046.32 605.053 1021.68C604.886 996.182 608.359 963.741 615.359 925.285ZM611.545 930.91C582.067 1093.02 616.091 1139.4 687.551 1034.46C759.011 929.524 840.85 713.039 870.328 550.93C899.806 388.821 865.783 342.442 794.322 447.379C722.862 552.316 641.023 768.801 611.545 930.91Z"></path>
<path fill-opacity="0.9" fill="url(#paint6_linear_16_765)" d="M606.891 923.171C615.158 882.904 626.726 839.005 641.273 792.737C655.328 748.019 671.541 702.979 689.484 658.853C707.426 614.727 726.178 573.711 745.224 536.997C764.933 498.974 784.11 467.241 802.206 442.608C820.315 417.999 836.227 402.028 849.558 395.102C862.414 388.419 872.347 390.455 879.017 401.099C885.699 411.765 888.81 430.506 888.262 456.85C887.697 484.127 883.196 518.366 874.928 558.633C866.661 598.9 855.093 642.799 840.545 689.066C826.491 733.785 810.278 778.824 792.335 822.95C774.393 867.076 755.641 908.092 736.595 944.807C716.886 982.829 697.709 1014.56 679.613 1039.2C661.517 1063.83 645.592 1079.78 632.261 1086.7C619.405 1093.38 609.471 1091.35 602.802 1080.7C596.12 1070.04 593.009 1051.3 593.557 1024.95C594.122 997.676 598.623 963.438 606.891 923.171ZM602.808 928.704C567.915 1098.47 601.484 1152.02 677.742 1048.29C754.015 944.587 844.141 722.854 879.011 553.099C913.904 383.331 880.335 329.781 804.076 433.51C727.804 537.217 637.678 758.949 602.808 928.704Z"></path>
<path fill-opacity="0.9" fill="url(#paint7_linear_16_765)" d="M598.265 919.891C607.896 877.82 621.03 832.307 637.284 784.561C652.965 738.441 670.902 692.221 690.559 647.167C710.217 602.112 730.632 560.506 751.204 523.496C772.512 485.198 793.08 453.525 812.341 429.361C831.601 405.197 848.384 389.987 862.261 384.165C875.635 378.54 885.753 381.858 892.3 394.052C898.833 406.222 901.495 426.642 900.165 454.731C898.788 483.805 893.211 519.866 883.58 561.938C873.949 604.01 860.816 649.522 844.562 697.268C828.881 743.388 810.944 789.608 791.286 834.663C771.628 879.717 751.213 921.324 730.642 958.333C709.334 996.631 688.765 1028.3 669.505 1052.47C650.244 1076.63 633.461 1091.84 619.584 1097.66C606.21 1103.29 596.093 1099.97 589.546 1087.78C583.012 1075.61 580.351 1055.19 581.68 1027.1C583.058 998.025 588.634 961.963 598.265 919.891ZM593.914 925.333C553.264 1102.65 586.128 1163.79 667.321 1061.93C748.514 960.072 847.255 733.767 887.918 556.473C928.568 379.156 895.704 318.015 814.511 419.874C733.318 521.734 634.577 748.04 593.914 925.333Z"></path>
<path fill-opacity="0.9" fill="url(#paint8_linear_16_765)" d="M589.525 915.375C600.619 871.564 615.392 824.457 633.419 775.349C650.84 727.916 670.531 680.622 691.997 634.8C713.45 588.956 735.563 546.924 757.73 509.795C780.694 471.374 802.664 439.94 823.11 416.387C843.556 392.833 861.221 378.564 875.59 373.968C889.466 369.534 899.73 374.278 906.108 388.05C912.463 401.834 914.592 423.949 912.436 453.811C910.199 484.707 903.428 522.599 892.334 566.409C881.24 610.22 866.467 657.327 848.441 706.435C831.019 753.868 811.329 801.162 789.862 846.984C768.409 892.828 746.297 934.86 724.129 971.989C701.166 1010.41 679.195 1041.84 658.749 1065.4C638.303 1088.95 620.638 1103.22 606.269 1107.82C592.393 1112.25 582.13 1107.51 575.751 1093.73C569.396 1079.95 567.267 1057.83 569.423 1027.97C571.661 997.077 578.432 959.185 589.525 915.375ZM584.915 920.688C538.15 1105.36 570.076 1174.6 656.232 1075.3C742.389 976.002 850.169 745.803 896.935 561.132C943.7 376.461 911.774 307.223 825.617 406.521C739.461 505.819 631.68 736.017 584.915 920.688Z"></path>
<path fill-opacity="0.9" fill="url(#paint9_linear_16_765)" d="M580.697 909.524C593.34 864.017 609.829 815.396 629.708 765.063C648.936 716.433 670.497 668.213 693.793 621.768C717.111 575.309 740.988 532.968 764.776 495.921C789.406 457.556 812.862 426.559 834.504 403.795C856.146 381.031 874.654 367.848 889.526 364.658C903.889 361.547 914.268 367.827 920.402 383.312C926.523 398.774 928.077 422.67 924.988 454.335C921.799 487.106 913.783 526.796 901.14 572.303C888.497 617.81 872.009 666.432 852.129 716.764C832.901 765.394 811.34 813.614 788.044 860.06C764.726 906.519 740.849 948.859 717.061 985.906C692.432 1024.27 668.975 1055.27 647.333 1078.03C625.691 1100.8 607.183 1113.98 592.311 1117.17C577.949 1120.28 567.569 1114 561.435 1098.52C555.314 1083.05 553.76 1059.16 556.849 1027.49C560.039 994.721 568.054 955.031 580.697 909.524ZM575.824 914.651C522.562 1106.5 553.31 1184.22 644.513 1088.26C735.703 992.289 852.797 758.995 906.059 567.15C959.322 375.305 928.573 297.585 837.37 393.537C746.181 489.512 629.086 722.805 575.824 914.651Z"></path>
<path fill-opacity="0.9" fill="url(#paint10_linear_16_765)" d="M571.801 902.242C586.056 855.095 604.377 805.107 626.222 753.64C647.324 703.928 670.826 654.958 696.057 608.073C721.289 561.188 746.99 518.75 772.455 481.937C798.812 443.839 823.756 413.495 846.581 391.713C869.407 369.931 888.781 358.035 904.127 356.36C918.95 354.741 929.417 362.667 935.251 379.929C941.085 397.191 941.981 422.886 937.923 456.343C933.708 490.971 924.353 532.452 910.097 579.599C895.841 626.747 877.52 676.734 855.675 728.202C834.574 777.914 811.071 826.884 785.84 873.769C760.609 920.654 734.907 963.092 709.442 999.905C683.086 1038 658.142 1068.35 635.316 1090.13C612.491 1111.91 593.116 1123.81 577.77 1125.48C562.947 1127.1 552.481 1119.17 546.647 1101.91C540.813 1084.65 539.917 1058.96 543.975 1025.5C548.19 990.871 557.545 949.39 571.801 902.242ZM566.652 907.158C506.54 1105.89 535.828 1192.56 632.078 1100.76C728.327 1008.95 855.098 773.404 915.209 574.674C975.321 375.945 946.033 289.271 849.783 381.075C753.533 472.879 626.763 708.429 566.652 907.158Z"></path>
<path fill-opacity="0.9" fill="url(#paint11_linear_16_765)" d="M562.901 893.404C578.882 844.705 599.089 793.444 622.97 741.017C646.038 690.385 671.539 640.816 698.753 593.681C725.968 546.545 753.555 504.221 780.724 467.904C808.845 430.298 835.287 400.786 859.333 380.211C883.367 359.612 903.56 349.187 919.331 349.21C934.575 349.228 945.075 358.924 950.567 378.049C956.058 397.174 956.23 424.766 951.084 460.024C945.774 496.548 934.979 539.755 918.998 588.453C903.017 637.152 882.81 688.413 858.929 740.841C835.861 791.472 810.36 841.041 783.145 888.177C755.931 935.312 728.344 977.636 701.175 1013.95C673.053 1051.56 646.612 1081.07 622.565 1101.65C598.532 1122.24 578.339 1132.67 562.568 1132.65C547.324 1132.63 536.823 1122.93 531.332 1103.81C525.841 1084.68 525.669 1057.09 530.815 1021.83C536.125 985.309 546.92 942.103 562.901 893.404ZM557.473 898.049C490.109 1103.34 517.663 1199.4 618.964 1112.61C720.278 1025.84 857.013 789.066 924.377 583.775C991.74 378.485 964.186 282.423 862.885 369.217C761.571 455.989 624.836 692.759 557.473 898.049Z"></path>
<path fill-opacity="0.9" fill="url(#paint12_linear_16_765)" d="M554.016 882.931C571.799 832.761 593.995 780.351 619.96 727.153C645.051 675.753 672.634 625.784 701.892 578.61C731.15 531.435 760.636 489.464 789.535 453.845C819.435 416.97 847.402 388.55 872.634 369.388C897.866 350.225 918.851 341.44 935.044 343.315C950.671 345.117 961.167 356.727 966.236 377.792C971.319 398.88 970.708 428.374 964.427 465.459C957.95 503.859 945.628 548.749 927.845 598.92C910.062 649.09 887.866 701.5 861.901 754.699C836.809 806.098 809.227 856.067 779.969 903.241C750.711 950.416 721.224 992.387 692.326 1028.01C662.426 1064.88 634.459 1093.3 609.227 1112.46C583.995 1131.63 563.01 1140.41 546.816 1138.54C531.19 1136.73 520.694 1125.12 515.625 1104.06C510.542 1082.97 511.153 1053.48 517.434 1016.39C523.911 977.992 536.232 933.102 554.016 882.931ZM548.327 887.233C473.376 1098.66 498.841 1204.57 605.203 1123.76C711.565 1042.96 858.569 806.024 933.52 594.595C1008.47 383.166 983.007 277.262 876.645 358.067C770.282 438.872 623.279 675.804 548.327 887.233Z"></path>
<path fill-opacity="0.9" fill="url(#paint13_linear_16_765)" d="M545.218 870.69C564.883 819.186 589.161 765.789 617.316 712.005C644.516 660.037 674.218 609.892 705.57 562.927C736.922 515.962 768.359 474.591 799.001 439.909C830.708 404.026 860.191 376.951 886.623 359.439C913.055 341.928 934.81 335.01 951.34 338.912C967.3 342.68 977.726 356.304 982.32 379.431C986.915 402.559 985.429 434.007 977.94 472.9C970.186 513.148 956.265 559.701 936.6 611.205C916.934 662.709 892.656 716.105 864.501 769.89C837.302 821.858 807.6 872.003 776.247 918.968C744.895 965.933 713.458 1007.3 682.816 1041.99C651.11 1077.87 621.627 1104.94 595.195 1122.46C568.763 1139.97 547.007 1146.88 530.477 1142.98C514.517 1139.21 504.092 1125.59 499.497 1102.46C494.902 1079.34 496.389 1047.89 503.877 1009C511.632 968.747 525.552 922.194 545.218 870.69ZM539.256 874.625C456.331 1091.74 479.383 1207.88 590.758 1134.05C702.133 1060.22 859.646 824.346 942.571 607.233C1025.5 390.121 1002.44 273.975 891.069 347.806C779.694 421.637 622.182 657.513 539.256 874.625Z"></path>
<path fill-opacity="0.9" fill="url(#paint14_linear_16_765)" d="M536.556 856.536C558.207 803.824 584.601 749.607 615.03 695.435C644.421 643.096 676.316 593.011 709.814 546.504C743.325 500.019 776.726 459.488 809.143 426.063C842.696 391.457 873.687 365.978 901.287 350.383C928.874 334.764 951.414 329.953 968.232 336.063C984.499 341.966 994.792 357.764 998.82 383.007C1002.85 408.25 1000.44 441.681 991.647 482.374C982.533 524.487 966.933 572.564 945.295 625.299C923.644 678.012 897.25 732.229 866.821 786.401C837.43 838.74 805.535 888.825 772.038 935.332C738.527 981.817 705.125 1022.35 672.709 1055.77C639.155 1090.38 608.164 1115.86 580.564 1131.45C552.978 1147.07 530.438 1151.88 513.62 1145.77C497.352 1139.87 487.059 1124.07 483.032 1098.83C479.004 1073.59 481.412 1040.16 490.205 999.462C499.319 957.349 514.918 909.272 536.556 856.536ZM530.331 860.069C439.051 1082.31 459.358 1209.14 575.678 1143.34C691.998 1077.54 860.254 844.035 951.52 621.767C1042.8 399.523 1022.49 272.695 906.173 338.495C789.853 404.296 621.598 637.801 530.331 860.069Z"></path>
<path fill-opacity="0.9" fill="url(#paint15_linear_16_765)" d="M528.086 840.417C551.803 786.636 580.434 731.805 613.165 677.507C644.797 625.045 678.936 575.269 714.61 529.54C750.284 483.811 785.705 444.427 819.923 412.521C855.306 379.48 887.836 355.919 916.558 342.482C945.281 329.044 968.533 326.536 985.604 335.059C1002.09 343.27 1012.2 361.364 1015.62 388.81C1019.04 416.255 1015.6 451.698 1005.41 494.126C994.846 538.061 977.467 587.597 953.764 641.401C930.047 695.183 901.416 750.013 868.686 804.311C837.053 856.773 802.914 906.549 767.24 952.278C731.566 998.007 696.145 1037.39 661.927 1069.3C626.544 1102.34 594.014 1125.9 565.292 1139.34C536.569 1152.77 513.317 1155.28 496.246 1146.76C479.756 1138.55 469.649 1120.45 466.231 1093.01C462.813 1065.56 466.249 1030.12 476.445 987.692C487.005 943.758 504.383 894.221 528.086 840.417ZM521.604 843.45C421.646 1070.21 438.812 1208.1 559.943 1151.49C681.061 1094.85 860.288 865.13 960.259 638.391C1060.22 411.63 1043.05 273.737 921.92 330.351C800.803 386.987 621.576 616.712 521.604 843.45Z"></path>
<path fill-opacity="0.9" fill="url(#paint16_linear_16_765)" d="M519.853 822.205C545.728 767.516 576.646 712.321 611.789 658.141C645.715 605.805 682.138 556.621 720.053 511.943C757.945 467.277 795.416 429.361 831.371 399.289C868.614 368.135 902.618 346.807 932.481 335.825C962.321 324.857 986.217 324.906 1003.48 336.003C1020.16 346.727 1029.99 367.231 1032.71 396.991C1035.41 426.729 1030.89 464.187 1019.22 508.331C1007.15 554.031 987.901 604.924 962.039 659.636C936.164 714.324 905.246 769.519 870.103 823.699C836.177 876.035 799.753 925.219 761.839 969.898C723.947 1014.56 686.476 1052.48 650.52 1082.55C613.278 1113.71 579.274 1135.03 549.411 1146.02C519.571 1156.98 495.674 1156.93 478.413 1145.84C461.737 1135.11 451.903 1114.61 449.184 1084.85C446.478 1055.11 451.001 1017.65 462.673 973.509C474.743 927.809 493.99 876.916 519.853 822.205ZM513.109 824.679C404.105 1055.21 417.738 1204.61 543.546 1158.34C669.354 1112.07 859.718 887.7 968.71 657.142C1077.71 426.607 1064.08 277.208 938.273 323.477C812.465 369.746 622.101 594.121 513.109 824.679Z"></path>
<path fill-opacity="0.9" fill="url(#paint17_linear_16_765)" d="M511.934 801.765C540.016 746.357 573.319 691.02 610.891 637.256C647.187 585.34 685.95 537.057 726.091 493.776C766.231 450.495 805.714 414.408 843.461 386.478C882.54 357.595 918.022 338.774 948.924 330.554C979.826 322.334 1004.34 325.206 1021.7 339.107C1038.5 352.541 1047.99 375.613 1049.91 407.72C1051.85 439.812 1046.09 479.306 1032.86 525.124C1019.16 572.537 997.973 624.671 969.878 680.055C941.797 735.462 908.494 790.8 870.921 844.564C834.626 896.48 795.863 944.763 755.722 988.044C715.582 1031.32 676.099 1067.41 638.351 1095.34C599.273 1124.22 563.791 1143.05 532.889 1151.27C501.986 1159.49 477.478 1156.61 460.108 1142.71C443.317 1129.28 433.82 1106.21 431.905 1074.1C429.966 1042.01 435.72 1002.51 448.955 956.696C462.656 909.283 483.839 857.149 511.934 801.765ZM504.963 803.631C386.578 1037.15 396.256 1198.39 526.591 1163.75C656.903 1129.13 858.514 911.737 976.899 678.222C1095.28 444.707 1085.61 283.465 955.272 318.101C824.96 352.723 623.349 570.116 504.963 803.631Z"></path>
<path fill-opacity="0.9" fill="url(#paint18_linear_16_765)" d="M504.41 778.999C534.795 723.095 570.51 667.875 610.58 614.859C649.287 563.648 690.411 516.623 732.799 475.097C775.186 433.572 816.713 399.636 856.217 374.269C897.102 347.981 934.039 332.052 965.951 326.918C997.888 321.771 1022.92 327.734 1040.32 344.637C1057.14 360.952 1066.23 386.729 1067.26 421.257C1068.31 455.772 1061.31 497.316 1046.42 544.704C1031.01 593.751 1007.8 646.964 977.401 702.845C947.016 758.75 911.301 813.969 871.231 866.985C832.524 918.197 791.4 965.222 749.012 1006.75C706.625 1048.27 665.098 1082.21 625.594 1107.58C584.709 1133.86 547.772 1149.79 515.86 1154.93C483.924 1160.07 458.894 1154.11 441.488 1137.21C424.667 1120.89 415.582 1095.12 414.551 1060.59C413.496 1026.07 420.503 984.529 435.39 937.14C450.8 888.093 474.012 834.88 504.41 778.999ZM497.218 780.161C369.122 1015.77 374.423 1189.19 509.006 1167.52C643.612 1145.83 856.545 937.262 984.64 701.657C1112.73 466.052 1107.43 292.63 972.838 314.277C838.232 335.96 625.299 544.532 497.204 780.137L497.218 780.161Z"></path>
<path fill-opacity="0.9" fill="url(#paint19_linear_16_765)" d="M497.342 753.781C530.104 697.614 568.322 642.83 610.921 590.883C652.084 540.721 695.59 495.311 740.259 455.922C784.928 416.533 828.464 385.169 869.697 362.689C912.378 339.404 950.67 326.732 983.565 325.009C1016.45 323.263 1041.93 332.573 1059.3 352.672C1076.09 372.088 1084.63 400.71 1084.72 437.723C1084.81 474.737 1076.41 518.291 1059.79 567.171C1042.6 617.773 1017.25 671.88 984.486 728.046C951.723 784.213 913.506 838.997 870.907 890.944C829.744 941.106 786.238 986.516 741.568 1025.9C696.899 1065.29 653.364 1096.66 612.13 1119.14C569.45 1142.42 531.157 1155.09 498.262 1156.82C465.38 1158.56 439.899 1149.25 422.528 1129.15C405.736 1109.74 397.199 1081.12 397.107 1044.1C397.015 1007.09 405.42 963.536 422.036 914.656C439.232 864.054 464.58 809.947 497.342 753.781ZM489.947 754.165C351.843 990.861 352.283 1176.8 490.898 1169.49C629.514 1162.17 853.836 964.355 991.904 727.649C1129.98 490.966 1129.57 305.011 990.929 312.339C852.314 319.654 627.991 517.472 489.924 754.178L489.947 754.165Z"></path>
<path fill-opacity="0.9" fill="url(#paint20_linear_16_765)" d="M490.827 726.006C526.031 669.848 566.792 615.785 611.955 565.287C655.582 516.509 701.519 473.119 748.436 436.287C795.352 399.455 840.908 371.057 883.812 351.898C928.231 332.051 967.878 323.007 1001.63 325.013C1035.38 327.019 1061.24 339.968 1078.49 363.496C1095.12 386.212 1103.09 417.788 1102.1 457.367C1101.14 496.932 1091.27 542.5 1072.82 592.746C1053.72 644.791 1026.19 699.663 990.995 755.784C955.791 811.942 915.03 866.004 869.867 916.502C826.24 965.281 780.303 1008.67 733.387 1045.5C686.47 1082.33 640.914 1110.73 598.01 1129.89C553.591 1149.74 513.944 1158.78 480.191 1156.78C446.438 1154.77 420.582 1141.82 403.329 1118.29C386.698 1095.58 378.737 1064 379.723 1024.42C380.687 984.858 390.551 939.29 408.999 889.044C428.106 836.999 455.634 782.127 490.827 726.006ZM483.227 725.553C334.844 962.232 329.952 1161 472.255 1169.47C614.594 1177.95 850.239 992.963 998.622 756.283C1147.01 519.604 1151.91 320.862 1009.57 312.38C867.232 303.898 631.586 488.887 483.203 725.566L483.227 725.553Z"></path>
<path fill-opacity="0.9" fill="url(#paint21_linear_16_765)" d="M484.967 695.552C522.653 639.688 566.016 586.713 613.768 538.082C659.907 491.091 708.226 450.119 757.392 416.275C806.558 382.431 854.054 357.445 898.618 342.016C944.716 326.04 985.623 321.048 1020.2 327.144C1054.76 333.278 1080.9 350.135 1097.88 377.304C1114.29 403.539 1121.52 438.222 1119.41 480.393C1117.26 522.554 1105.87 570.079 1085.49 621.626C1064.41 674.998 1034.61 730.377 996.913 786.218C959.227 842.082 915.864 895.056 868.112 943.688C821.973 990.679 773.654 1031.65 724.488 1065.5C675.322 1099.34 627.826 1124.32 583.263 1139.75C537.164 1155.73 496.257 1160.72 461.684 1154.63C427.111 1148.53 400.983 1131.64 384.001 1104.47C367.59 1078.23 360.364 1043.55 362.475 1001.38C364.622 959.216 376.008 911.691 396.389 860.144C417.473 806.771 447.268 751.393 484.967 695.552ZM477.167 694.166C318.241 929.623 307.491 1141.42 453.181 1167.24C598.857 1193.04 845.779 1023.1 1004.7 787.641C1163.63 552.183 1174.38 340.384 1028.7 314.585C883.027 288.787 636.105 458.731 477.18 694.189L477.167 694.166Z"></path>
<path fill-opacity="0.9" fill="url(#paint22_linear_16_765)" d="M479.808 662.333C520.067 607.081 566.03 555.565 616.396 509.218C665.049 464.445 715.766 426.344 767.15 395.968C818.534 365.592 867.962 344.487 914.068 333.224C961.802 321.577 1003.86 321.039 1039.14 331.664C1074.4 342.266 1100.71 363.372 1117.34 394.415C1133.41 424.391 1139.84 462.281 1136.43 507.114C1133.02 551.911 1119.97 601.355 1097.6 654.051C1074.44 708.588 1042.32 764.262 1002.04 819.528C961.781 874.781 915.818 926.296 865.452 972.643C816.799 1017.42 766.082 1055.52 714.698 1085.89C663.314 1116.27 613.886 1137.37 567.78 1148.64C520.046 1160.28 477.986 1160.82 442.71 1150.2C407.435 1139.57 381.139 1118.49 364.511 1087.45C348.438 1057.47 342.012 1019.58 345.423 974.747C348.824 929.95 361.877 880.506 384.247 827.811C407.404 773.273 439.549 717.586 479.808 662.333ZM471.864 659.951C302.148 892.849 285.051 1117.9 433.633 1162.62C582.239 1207.33 840.256 1054.79 1009.97 821.888C1179.69 588.989 1196.78 363.934 1048.17 319.205C899.56 274.499 641.543 427.042 471.827 659.941L471.864 659.951Z"></path>
<path fill-opacity="0.9" fill="url(#paint23_linear_16_765)" d="M475.472 626.227C518.336 571.906 566.925 522.268 619.896 478.671C671.066 436.547 724.149 401.798 777.697 375.384C831.246 348.97 882.515 332.229 930.109 325.627C979.388 318.793 1022.53 323.178 1058.36 338.664C1094.19 354.149 1120.57 379.81 1136.74 414.913C1152.34 448.83 1157.85 490.089 1153.06 537.565C1148.28 585.041 1133.46 636.338 1109.03 690.007C1083.72 745.571 1049.18 801.282 1006.31 855.579C963.431 909.876 914.855 959.538 861.884 1003.13C810.715 1045.26 757.631 1080.01 704.083 1106.42C650.535 1132.84 599.265 1149.58 551.671 1156.18C502.392 1163.01 459.247 1158.63 423.416 1143.14C387.585 1127.66 361.206 1102 345.041 1066.89C329.437 1032.98 323.933 991.717 328.717 944.241C333.501 896.764 348.321 845.467 372.751 791.799C398.059 736.235 432.595 680.524 475.472 626.227ZM467.414 622.738C286.726 851.641 262.706 1090.13 413.778 1155.4C564.85 1220.67 833.764 1088.01 1014.44 859.087C1195.13 630.184 1219.12 391.71 1068.07 326.427C917.003 261.158 648.089 393.812 467.414 622.738Z"></path>
<path fill-opacity="0.9" fill="url(#paint24_linear_16_765)" d="M472.087 587.13C517.604 534.146 568.842 486.801 624.402 446.459C678.093 407.473 733.503 376.593 789.151 354.671C844.8 332.75 897.869 320.89 946.838 319.446C997.562 317.945 1041.65 327.706 1077.97 348.463C1114.28 369.219 1140.57 399.743 1156.13 439.142C1171.17 477.209 1175.62 521.977 1169.35 572.126C1163.08 622.312 1146.43 675.346 1119.82 729.84C1092.28 786.232 1055.25 841.685 1009.75 894.692C964.244 947.7 912.991 995.022 857.432 1035.36C803.741 1074.35 748.331 1105.23 692.683 1127.15C637.034 1149.07 583.965 1160.93 534.996 1162.38C484.271 1163.88 440.182 1154.12 403.867 1133.36C367.553 1112.6 341.265 1082.08 325.703 1042.68C310.663 1004.61 306.217 959.845 312.48 909.696C318.752 859.51 335.407 806.476 362.012 751.983C389.556 695.59 426.584 640.137 472.087 587.13ZM463.898 582.452C272.072 805.79 240.619 1057.79 393.625 1145.32C546.618 1232.82 826.147 1122.72 1017.96 899.356C1209.79 676.018 1241.26 424.006 1088.26 336.479C935.262 248.975 655.734 359.078 463.921 582.439L463.898 582.452Z"></path>
<path fill-opacity="0.9" fill="url(#paint25_linear_16_765)" d="M469.723 544.955C517.904 493.702 571.798 449.14 629.929 412.557C686.087 377.204 743.796 350.732 801.494 333.856C859.192 316.981 913.915 310.549 964.181 314.771C1016.21 319.114 1061.17 334.757 1097.78 361.203C1134.39 387.65 1160.46 423.355 1175.29 467.309C1189.6 509.774 1192.9 558.105 1185.03 610.971C1177.16 663.837 1158.56 718.58 1129.7 773.663C1099.84 830.684 1060.3 885.583 1012.11 936.873C963.93 988.126 910.035 1032.69 851.905 1069.27C795.747 1104.62 738.038 1131.1 680.34 1147.97C622.642 1164.85 567.918 1171.28 517.652 1167.06C465.62 1162.71 420.663 1147.07 384.055 1120.62C347.447 1094.18 321.374 1058.47 306.544 1014.52C292.233 972.054 288.937 923.723 296.808 870.856C304.678 817.99 323.276 763.248 352.131 708.165C381.971 651.157 421.533 596.245 469.723 544.955ZM461.468 538.99C258.404 755.093 218.876 1020.67 373.215 1132.19C527.554 1243.71 817.288 1158.92 1020.37 942.838C1223.44 726.758 1262.96 461.161 1108.62 349.641C954.28 238.121 664.546 322.909 461.468 538.99Z"></path>
<path fill-opacity="0.9" fill="url(#paint26_linear_16_765)" d="M468.516 499.62C519.386 450.514 575.919 409.241 636.583 376.992C695.158 345.825 755.091 324.329 814.742 313.079C874.37 301.842 930.674 301.406 982.077 311.817C1035.3 322.597 1080.92 344.578 1117.71 377.152C1154.49 409.725 1180.2 450.944 1194.13 499.642C1207.6 546.692 1209.56 598.73 1199.98 654.306C1190.41 709.883 1169.75 766.185 1138.6 821.669C1106.34 879.085 1064.22 933.098 1013.35 982.203C962.485 1031.31 905.952 1072.58 845.288 1104.83C786.713 1136 726.779 1157.49 667.128 1168.74C607.5 1179.98 551.196 1180.42 499.793 1170.01C446.573 1159.23 400.948 1137.25 364.164 1104.67C327.379 1072.1 301.669 1030.88 287.739 982.181C274.266 935.131 272.315 883.094 281.889 827.517C291.463 771.94 312.121 715.639 343.273 660.155C375.53 602.738 417.646 548.726 468.516 499.62ZM460.239 492.28C245.825 699.302 197.659 978.435 352.686 1115.77C507.699 1253.08 807.195 1196.58 1021.61 989.557C1236.02 782.535 1284.18 503.378 1129.16 366.067C974.148 228.755 674.652 285.258 460.239 492.28Z"></path>
<path fill-opacity="0.9" fill="url(#paint27_linear_16_765)" d="M468.589 451.029C522.141 404.539 581.321 367.102 644.408 339.745C705.363 313.341 767.425 297.4 828.876 292.42C890.313 287.416 948.055 293.582 1000.46 310.752C1054.7 328.531 1100.87 357.382 1137.63 396.538C1174.39 435.693 1199.58 482.735 1212.44 536.426C1224.9 588.287 1225.4 644.121 1213.98 702.369C1202.56 760.617 1179.77 818.362 1146.22 873.966C1111.52 931.53 1066.77 984.288 1013.19 1030.79C959.643 1077.28 900.463 1114.72 837.376 1142.08C776.421 1168.48 714.359 1184.42 652.908 1189.4C591.471 1194.41 533.729 1188.24 481.322 1171.07C427.084 1153.29 380.915 1124.44 344.154 1085.28C307.393 1046.13 282.207 999.087 269.341 945.396C256.884 893.535 256.38 837.701 267.804 779.453C279.228 721.205 302.012 663.46 335.562 607.856C370.263 550.292 415.015 497.534 468.589 451.029ZM460.318 442.205C234.534 638.184 177.139 930.817 332.113 1095.78C487.088 1260.75 795.754 1235.61 1021.53 1039.61C1247.3 843.611 1304.7 551.001 1149.72 386.013C994.743 221.049 686.077 246.18 460.305 442.182L460.318 442.205Z"></path>
<path fill-opacity="0.9" fill="url(#paint28_linear_16_765)" d="M470.072 399.116C526.311 355.73 588.051 322.675 653.531 300.905C716.783 279.867 780.856 270.135 844.024 272.027C907.155 273.908 966.167 287.296 1019.42 311.81C1074.54 337.194 1121.01 373.457 1157.58 419.6C1194.15 465.743 1218.6 519.001 1230.27 577.885C1241.54 634.784 1240.46 694.493 1227.09 755.406C1213.68 816.31 1188.68 875.337 1152.7 930.8C1115.46 988.229 1068.06 1039.34 1011.82 1082.73C955.579 1126.11 893.839 1159.17 828.358 1180.94C765.107 1201.97 701.034 1211.71 637.866 1209.81C574.735 1207.93 515.722 1194.54 462.468 1170.03C407.354 1144.65 360.884 1108.38 324.314 1062.24C287.744 1016.1 263.285 962.84 251.615 903.956C240.351 847.058 241.433 787.348 254.803 726.435C268.209 665.531 293.214 606.504 329.189 551.042C366.434 493.613 413.834 442.502 470.072 399.116ZM461.837 388.698C224.725 571.574 157.469 877.517 311.607 1072.01C465.759 1266.53 782.913 1275.97 1020.04 1093.12C1257.15 910.244 1324.4 604.337 1170.27 409.805C1016.12 215.286 698.963 205.846 461.837 388.698Z"></path>
<path fill-opacity="0.9" fill="url(#paint29_linear_16_765)" d="M473.069 343.821C531.99 304.067 596.22 276.019 663.964 260.467C729.405 245.412 795.401 242.587 860.086 252.021C924.772 261.456 984.865 282.699 1038.77 315.167C1094.53 348.779 1141.15 393.002 1177.31 446.599C1213.48 500.22 1237.01 559.995 1247.27 624.288C1257.2 686.4 1254.37 750.079 1238.89 813.595C1223.42 877.111 1196.05 937.226 1157.59 992.275C1117.76 1049.25 1067.69 1098.29 1008.77 1138.05C949.85 1177.8 885.619 1205.85 817.875 1221.4C752.434 1236.46 686.439 1239.28 621.753 1229.85C557.068 1220.41 496.974 1199.17 443.074 1166.7C387.311 1133.09 340.686 1088.87 304.53 1035.27C268.361 981.65 244.828 921.875 234.568 857.582C224.642 795.47 227.472 731.791 242.947 668.275C258.421 604.758 285.79 544.644 324.255 489.595C364.075 432.621 414.147 383.575 473.069 343.821ZM464.912 331.724C216.552 499.23 138.797 818.235 291.238 1044.24C443.678 1270.25 768.567 1317.65 1016.91 1150.12C1265.27 982.617 1343.01 663.625 1190.57 437.62C1038.13 211.615 713.236 164.208 464.889 331.737L464.912 331.724Z"></path>
<path fill-opacity="0.9" fill="url(#paint30_linear_16_765)" d="M477.742 285.06C539.286 249.527 605.936 227.113 675.864 218.441C743.405 210.068 811.133 214.785 877.164 232.477C943.194 250.17 1004.23 279.936 1058.51 320.971C1114.74 363.446 1161.25 416.182 1196.78 477.726C1232.31 539.27 1254.73 605.92 1263.4 675.848C1271.77 743.389 1267.06 811.117 1249.36 877.148C1231.67 943.178 1201.91 1004.21 1160.87 1058.5C1118.4 1114.72 1065.66 1161.23 1004.12 1196.77C942.572 1232.3 875.922 1254.71 805.994 1263.38C738.453 1271.76 670.725 1267.04 604.694 1249.35C538.663 1231.66 477.627 1201.89 423.345 1160.85C367.122 1118.38 320.608 1065.64 285.076 1004.1C249.543 942.556 227.129 875.906 218.457 805.978C210.084 738.437 214.8 670.709 232.493 604.678C250.186 538.647 279.952 477.611 320.987 423.329C363.462 367.106 416.198 320.592 477.742 285.06ZM469.73 271.183C210.303 420.963 121.419 752.685 271.199 1012.11C420.979 1271.54 752.701 1360.42 1012.13 1210.64C1271.55 1060.86 1360.44 729.141 1210.66 469.714C1060.88 210.287 729.157 121.403 469.73 271.183Z"></path>
</g>
<defs>
<linearGradient gradientUnits="userSpaceOnUse" y2="873.853" x2="925.291" y1="589.999" x1="560.785" id="paint0_linear_16_765">
<stop stop-color="#EF78FF"></stop>
<stop stop-color="#03FBFE" offset="1"></stop>
</linearGradient>
<linearGradient gradientUnits="userSpaceOnUse" y2="885.155" x2="926.259" y1="587.148" x1="553.028" id="paint1_linear_16_765">
<stop stop-color="#EF78FF"></stop>
<stop stop-color="#03FBFE" offset="1"></stop>
</linearGradient>
<linearGradient gradientUnits="userSpaceOnUse" y2="896.462" x2="926.481" y1="584.654" x1="545.298" id="paint2_linear_16_765">
<stop stop-color="#EF78FF"></stop>
<stop stop-color="#03FBFE" offset="1"></stop>
</linearGradient>
<linearGradient gradientUnits="userSpaceOnUse" y2="907.815" x2="925.943" y1="582.627" x1="537.694" id="paint3_linear_16_765">
<stop stop-color="#EF78FF"></stop>
<stop stop-color="#03FBFE" offset="1"></stop>
</linearGradient>
<linearGradient gradientUnits="userSpaceOnUse" y2="919.035" x2="924.657" y1="580.982" x1="530.177" id="paint4_linear_16_765">
<stop stop-color="#EF78FF"></stop>
<stop stop-color="#03FBFE" offset="1"></stop>
</linearGradient>
<linearGradient gradientUnits="userSpaceOnUse" y2="930.13" x2="922.551" y1="579.844" x1="522.872" id="paint5_linear_16_765">
<stop stop-color="#EF78FF"></stop>
<stop stop-color="#03FBFE" offset="1"></stop>
</linearGradient>
<linearGradient gradientUnits="userSpaceOnUse" y2="940.98" x2="919.627" y1="579.161" x1="515.702" id="paint6_linear_16_765">
<stop stop-color="#EF78FF"></stop>
<stop stop-color="#03FBFE" offset="1"></stop>
</linearGradient>
<linearGradient gradientUnits="userSpaceOnUse" y2="951.578" x2="915.881" y1="579.037" x1="508.801" id="paint7_linear_16_765">
<stop stop-color="#EF78FF"></stop>
<stop stop-color="#03FBFE" offset="1"></stop>
</linearGradient>
<linearGradient gradientUnits="userSpaceOnUse" y2="961.812" x2="911.379" y1="579.423" x1="502.16" id="paint8_linear_16_765">
<stop stop-color="#EF78FF"></stop>
<stop stop-color="#03FBFE" offset="1"></stop>
</linearGradient>
<linearGradient gradientUnits="userSpaceOnUse" y2="971.613" x2="906.13" y1="580.311" x1="495.807" id="paint9_linear_16_765">
<stop stop-color="#EF78FF"></stop>
<stop stop-color="#03FBFE" offset="1"></stop>
</linearGradient>
<linearGradient gradientUnits="userSpaceOnUse" y2="980.949" x2="900.164" y1="581.724" x1="489.734" id="paint10_linear_16_765">
<stop stop-color="#EF78FF"></stop>
<stop stop-color="#03FBFE" offset="1"></stop>
</linearGradient>
<linearGradient gradientUnits="userSpaceOnUse" y2="989.733" x2="893.574" y1="583.598" x1="483.984" id="paint11_linear_16_765">
<stop stop-color="#EF78FF"></stop>
<stop stop-color="#03FBFE" offset="1"></stop>
</linearGradient>
<linearGradient gradientUnits="userSpaceOnUse" y2="997.943" x2="886.548" y1="585.861" x1="478.549" id="paint12_linear_16_765">
<stop stop-color="#EF78FF"></stop>
<stop stop-color="#03FBFE" offset="1"></stop>
</linearGradient>
<linearGradient gradientUnits="userSpaceOnUse" y2="1005.58" x2="879.194" y1="588.454" x1="473.399" id="paint13_linear_16_765">
<stop stop-color="#EF78FF"></stop>
<stop stop-color="#03FBFE" offset="1"></stop>
</linearGradient>
<linearGradient gradientUnits="userSpaceOnUse" y2="1012.63" x2="871.813" y1="591.172" x1="468.507" id="paint14_linear_16_765">
<stop stop-color="#EF78FF"></stop>
<stop stop-color="#03FBFE" offset="1"></stop>
</linearGradient>
<linearGradient gradientUnits="userSpaceOnUse" y2="1019.15" x2="864.663" y1="593.883" x1="463.805" id="paint15_linear_16_765">
<stop stop-color="#EF78FF"></stop>
<stop stop-color="#03FBFE" offset="1"></stop>
</linearGradient>
<linearGradient gradientUnits="userSpaceOnUse" y2="1025.24" x2="858.072" y1="596.321" x1="459.15" id="paint16_linear_16_765">
<stop stop-color="#EF78FF"></stop>
<stop stop-color="#03FBFE" offset="1"></stop>
</linearGradient>
<linearGradient gradientUnits="userSpaceOnUse" y2="1031.06" x2="852.532" y1="598.242" x1="454.501" id="paint17_linear_16_765">
<stop stop-color="#EF78FF"></stop>
<stop stop-color="#03FBFE" offset="1"></stop>
</linearGradient>
<linearGradient gradientUnits="userSpaceOnUse" y2="1036.73" x2="848.512" y1="599.196" x1="449.609" id="paint18_linear_16_765">
<stop stop-color="#EF78FF"></stop>
<stop stop-color="#03FBFE" offset="1"></stop>
</linearGradient>
<linearGradient gradientUnits="userSpaceOnUse" y2="1042.56" x2="846.66" y1="598.843" x1="444.307" id="paint19_linear_16_765">
<stop stop-color="#EF78FF"></stop>
<stop stop-color="#03FBFE" offset="1"></stop>
</linearGradient>
<linearGradient gradientUnits="userSpaceOnUse" y2="1048.77" x2="847.67" y1="596.646" x1="438.337" id="paint20_linear_16_765">
<stop stop-color="#EF78FF"></stop>
<stop stop-color="#03FBFE" offset="1"></stop>
</linearGradient>
<linearGradient gradientUnits="userSpaceOnUse" y2="1055.56" x2="852.393" y1="592.023" x1="431.432" id="paint21_linear_16_765">
<stop stop-color="#EF78FF"></stop>
<stop stop-color="#03FBFE" offset="1"></stop>
</linearGradient>
<linearGradient gradientUnits="userSpaceOnUse" y2="1063.09" x2="861.624" y1="584.424" x1="423.234" id="paint22_linear_16_765">
<stop stop-color="#EF78FF"></stop>
<stop stop-color="#03FBFE" offset="1"></stop>
</linearGradient>
<linearGradient gradientUnits="userSpaceOnUse" y2="1071.37" x2="876.303" y1="573.351" x1="413.567" id="paint23_linear_16_765">
<stop stop-color="#EF78FF"></stop>
<stop stop-color="#03FBFE" offset="1"></stop>
</linearGradient>
<linearGradient gradientUnits="userSpaceOnUse" y2="1080.09" x2="897.161" y1="558.352" x1="402.17" id="paint24_linear_16_765">
<stop stop-color="#EF78FF"></stop>
<stop stop-color="#03FBFE" offset="1"></stop>
</linearGradient>
<linearGradient gradientUnits="userSpaceOnUse" y2="1088.76" x2="924.881" y1="539.146" x1="388.827" id="paint25_linear_16_765">
<stop stop-color="#EF78FF"></stop>
<stop stop-color="#03FBFE" offset="1"></stop>
</linearGradient>
<linearGradient gradientUnits="userSpaceOnUse" y2="1096.51" x2="960.074" y1="515.483" x1="373.467" id="paint26_linear_16_765">
<stop stop-color="#EF78FF"></stop>
<stop stop-color="#03FBFE" offset="1"></stop>
</linearGradient>
<linearGradient gradientUnits="userSpaceOnUse" y2="1102.13" x2="1003.12" y1="487.221" x1="355.964" id="paint27_linear_16_765">
<stop stop-color="#EF78FF"></stop>
<stop stop-color="#03FBFE" offset="1"></stop>
</linearGradient>
<linearGradient gradientUnits="userSpaceOnUse" y2="1104.27" x2="1054.21" y1="454.401" x1="336.299" id="paint28_linear_16_765">
<stop stop-color="#EF78FF"></stop>
<stop stop-color="#03FBFE" offset="1"></stop>
</linearGradient>
<linearGradient gradientUnits="userSpaceOnUse" y2="1101.29" x2="1113.21" y1="416.974" x1="314.3" id="paint29_linear_16_765">
<stop stop-color="#EF78FF"></stop>
<stop stop-color="#03FBFE" offset="1"></stop>
</linearGradient>
<linearGradient gradientUnits="userSpaceOnUse" y2="1091.48" x2="1179.79" y1="374.958" x1="289.986" id="paint30_linear_16_765">
<stop stop-color="#EF78FF"></stop>
<stop stop-color="#03FBFE" offset="1"></stop>
</linearGradient>
<clipPath id="clip0_16_765">
<rect transform="translate(0 542.398) rotate(-30)" fill="white" height="1084.8" width="1084.8"></rect>
</clipPath>
</defs>
</svg>
